<svg width="54" height="54" viewBox="0 0 54 54" fill="none" xmlns="http://www.w3.org/2000/svg">
<path fill-rule="evenodd" clip-rule="evenodd" d="M32.3871 5.66106C32.3871 5.50231 32.3241 5.35006 32.2118 5.23781C32.0996 5.12556 31.9473 5.0625 31.7886 5.0625H15.029C13.2827 5.0625 11.608 5.75618 10.3733 6.99095C9.13851 8.22571 8.44482 9.90041 8.44482 11.6466V45.1659C8.44482 46.9121 9.13851 48.5868 10.3733 49.8216C11.608 51.0563 13.2827 51.75 15.029 51.75H38.9713C40.7175 51.75 42.3922 51.0563 43.627 49.8216C44.8617 48.5868 45.5554 46.9121 45.5554 45.1659V21.5755C45.5554 21.4168 45.4923 21.2645 45.3801 21.1523C45.2678 21.04 45.1156 20.977 44.9568 20.977H34.1828C33.7066 20.977 33.2498 20.7878 32.9131 20.451C32.5763 20.1143 32.3871 19.6575 32.3871 19.1813V5.66106ZM34.1828 29.0048C34.659 29.0048 35.1158 29.194 35.4525 29.5308C35.7893 29.8675 35.9785 30.3242 35.9785 30.8005C35.9785 31.2767 35.7893 31.7335 35.4525 32.0702C35.1158 32.407 34.659 32.5962 34.1828 32.5962H19.8174C19.3412 32.5962 18.8844 32.407 18.5477 32.0702C18.2109 31.7335 18.0217 31.2767 18.0217 30.8005C18.0217 30.3242 18.2109 29.8675 18.5477 29.5308C18.8844 29.194 19.3412 29.0048 19.8174 29.0048H34.1828ZM34.1828 38.5817C34.659 38.5817 35.1158 38.7709 35.4525 39.1077C35.7893 39.4444 35.9785 39.9012 35.9785 40.3774C35.9785 40.8536 35.7893 41.3104 35.4525 41.6471C35.1158 41.9839 34.659 42.1731 34.1828 42.1731H19.8174C19.3412 42.1731 18.8844 41.9839 18.5477 41.6471C18.2109 41.3104 18.0217 40.8536 18.0217 40.3774C18.0217 39.9012 18.2109 39.4444 18.5477 39.1077C18.8844 38.7709 19.3412 38.5817 19.8174 38.5817H34.1828Z" fill="#4741FF"/>
<path d="M35.9785 6.43651C35.9785 5.99597 36.4406 5.71585 36.783 5.99118C37.0735 6.22582 37.3313 6.49876 37.5563 6.81001L44.7701 16.8586C44.9329 17.0884 44.7558 17.3853 44.4732 17.3853H36.5771C36.4183 17.3853 36.2661 17.3223 36.1538 17.21C36.0416 17.0978 35.9785 16.9455 35.9785 16.7868V6.43651Z" fill="#4741FF"/>
</svg>
